<svg width="15" height="15" viewBox="0 0 15 15" fill="none" xmlns="http://www.w3.org/2000/svg">
<path d="M7.5 3.64561C6.73835 3.64561 5.9938 3.87125 5.36052 4.294C4.72723 4.71676 4.23364 5.31763 3.94217 6.02064C3.6507 6.72365 3.57443 7.49723 3.72302 8.24354C3.87162 8.98986 4.23838 9.67539 4.77695 10.2135C5.31552 10.7515 6.0017 11.1179 6.74871 11.2664C7.49573 11.4148 8.27003 11.3387 8.9737 11.0475C9.67737 10.7563 10.2788 10.2631 10.702 9.63044C11.1251 8.99774 11.351 8.2539 11.351 7.49296C11.3522 6.98737 11.2534 6.48652 11.0604 6.01918C10.8673 5.55184 10.5837 5.12722 10.2258 4.76971C9.86797 4.4122 9.44295 4.12886 8.97517 3.93595C8.50739 3.74304 8.00606 3.64437 7.5 3.64561ZM7.5 9.99844C7.004 9.99844 6.51914 9.85149 6.10673 9.57619C5.69432 9.30088 5.37288 8.90958 5.18307 8.45176C4.99326 7.99395 4.94359 7.49018 5.04036 7.00417C5.13712 6.51815 5.37597 6.07172 5.7267 5.72132C6.07742 5.37093 6.52428 5.1323 7.01075 5.03563C7.49722 4.93896 8.00146 4.98857 8.4597 5.17821C8.91795 5.36784 9.30962 5.68897 9.58518 6.101C9.86075 6.51302 10.0078 6.99743 10.0078 7.49296C10.0078 8.15746 9.74361 8.79473 9.2733 9.2646C8.80299 9.73447 8.16512 9.99844 7.5 9.99844ZM12.4123 3.48608C12.4123 3.67167 12.3572 3.8531 12.254 4.00742C12.1508 4.16173 12.0041 4.28201 11.8325 4.35303C11.6609 4.42405 11.472 4.44264 11.2898 4.40643C11.1076 4.37022 10.9403 4.28085 10.8089 4.14962C10.6776 4.01838 10.5881 3.85118 10.5519 3.66915C10.5156 3.48712 10.5342 3.29845 10.6053 3.12698C10.6764 2.95551 10.7968 2.80896 10.9512 2.70585C11.1057 2.60274 11.2873 2.5477 11.4731 2.5477C11.7222 2.5477 11.9611 2.64657 12.1372 2.82255C12.3134 2.99853 12.4123 3.23721 12.4123 3.48608ZM14.9577 4.42446C14.9861 3.25771 14.5504 2.12731 13.7461 1.28089C13.3288 0.877937 12.8362 0.561127 12.2963 0.348585C11.7563 0.136042 11.1798 0.0319379 10.5996 0.0422271C9.37852 -0.0140757 5.62148 -0.0140757 4.40044 0.0422271C3.23313 0.0169745 2.10279 0.451831 1.25391 1.25274C0.449618 2.09916 0.0139182 3.22956 0.0422667 4.39631C-0.0140889 5.6162 -0.0140889 9.36972 0.0422667 10.5896C0.0139182 11.7564 0.449618 12.8868 1.25391 13.7332C2.10279 14.5341 3.23313 14.9689 4.40044 14.9437C5.64026 15.0188 9.35974 15.0188 10.5996 14.9437C11.7674 14.972 12.8989 14.5367 13.7461 13.7332C14.5504 12.8868 14.9861 11.7564 14.9577 10.5896C15.0141 9.36972 15.0141 5.6162 14.9577 4.39631V4.42446ZM13.361 11.9315C13.2335 12.2542 13.0409 12.5474 12.7954 12.7927C12.5498 13.0381 12.2564 13.2304 11.9333 13.3578C10.4752 13.6524 8.98456 13.7533 7.5 13.6581C6.01856 13.7525 4.53113 13.6515 3.07608 13.3578C2.75303 13.2304 2.45962 13.0381 2.21404 12.7927C1.96845 12.5474 1.77593 12.2542 1.6484 11.9315C1.25391 10.9368 1.33845 8.59087 1.33845 7.50235C1.33845 6.41383 1.25391 4.05849 1.6484 3.07319C1.77233 2.74726 1.96348 2.45101 2.20944 2.20367C2.45539 1.95633 2.75066 1.76342 3.07608 1.63747C4.53113 1.34378 6.01856 1.24282 7.5 1.33719C8.98456 1.24199 10.4752 1.34296 11.9333 1.63747C12.2564 1.76488 12.5498 1.95722 12.7954 2.20258C13.0409 2.44793 13.2335 2.74106 13.361 3.06381C13.7555 4.05849 13.6616 6.40444 13.6616 7.49296C13.6616 8.58148 13.7555 10.9368 13.361 11.9221V11.9315Z" fill="#4E494E"/>
</svg>
